PathFileType	4	(X/Y/Z)	/Users/visionmauri/Downloads/Videos/OAW08-top_Sports2D/OAW08-top_Sports2D_px_person00.trc
DataRate	CameraRate	NumFrames	NumMarkers	Units	OrigDataRate	OrigDataStartFrame	OrigNumFrames
30.0	30.0	10	22	m	30.0	536	2144
Frame#	Time	Hip			RHip			RKnee			RAnkle			RBigToe			RSmallToe			RHeel			LHip			LKnee			LAnkle			LBigToe			LSmallToe			LHeel			Neck			Head			Nose			RShoulder			RElbow			RWrist			LShoulder			LElbow			LWrist			
		X1	Y1	Z1	X2	Y2	Z2	X3	Y3	Z3	X4	Y4	Z4	X5	Y5	Z5	X6	Y6	Z6	X7	Y7	Z7	X8	Y8	Z8	X9	Y9	Z9	X10	Y10	Z10	X11	Y11	Z11	X12	Y12	Z12	X13	Y13	Z13	X14	Y14	Z14	X15	Y15	Z15	X16	Y16	Z16	X17	Y17	Z17	X18	Y18	Z18	X19	Y19	Z19	X20	Y20	Z20	X21	Y21	Z21	X22	Y22	Z22
536	17.87500388862965	494.8107981686314	1013.2042442146662	0.0	536.2183545520342	1019.6549374361527	0.0	539.5522127784986	1182.8356453099432	0.0	534.4698093808689	1337.1902832475005	0.0	548.5903586557811	1323.8115643095914	0.0	569.2167618293352	1342.7354983626517	0.0	528.764887719441	1374.148365518076	0.0	449.2965150838915	1018.0646860004667	0.0	449.03277816688274	1186.0031323954224	0.0	430.55848786339624	1363.0480006278074	0.0	437.6370746203909	1396.8755548700988	0.0	401.21042103980193	1398.5504075587735	0.0	426.1154625988666	1400.4017878705629	0.0	514.0382436767882	751.2489003141554	0.0	518.0341203511715	639.8057809673162	0.0	522.8935449857654	706.7316616184484	0.0	594.1004223297169	802.1599547650701	0.0	619.6950598626626	939.2428228940008	0.0	642.8325407580737	1057.1932576460117	0.0	428.8619246519372	786.0378057858337	0.0	386.9969219195	916.0462629023237	0.0	406.9426248500245	1007.3677863398912	0.0
537	17.908352776481568	498.8899727411174	1006.4192760501553	0.0	539.8414253407799	1013.625910633506	0.0	541.773892032849	1173.0141145333484	0.0	535.1374596871748	1332.4486978650891	0.0	543.6874312477686	1325.093989617746	0.0	567.8733201735882	1341.8042242175234	0.0	529.0093786033814	1370.5487752200445	0.0	453.85638649049645	1010.3864544936766	0.0	455.17031951645833	1169.8946611813103	0.0	437.3798789033375	1340.9181493046392	0.0	442.8612812075743	1372.524117026774	0.0	408.16880691543	1373.1464822088992	0.0	433.5731312747974	1378.5717925462532	0.0	517.4577629491814	747.9508866928975	0.0	521.3321394037246	637.5743846044033	0.0	526.2729459789484	703.3317221937386	0.0	597.9475029909042	797.3501774094144	0.0	623.3309651378919	932.1427847847001	0.0	645.4175124934386	1045.700090626863	0.0	433.24878733479784	781.1942255300878	0.0	390.9054049582926	910.3570689996253	0.0	405.5854512304419	1004.4404069018944	0.0
538	17.94170166433349	503.0763938802483	1000.3395216025301	0.0	543.5429472936123	1009.2984805955573	0.0	543.2718634721504	1164.1489557707084	0.0	536.3572844973331	1327.2080613922185	0.0	539.7575016850762	1325.811546842448	0.0	567.2553989358738	1340.2958084021127	0.0	529.5457732710992	1366.19146114783	0.0	458.1164752842775	1005.4562080916162	0.0	460.9540261172463	1156.8522131069226	0.0	446.08351518955186	1320.277666331636	0.0	452.1936235116241	1349.8544378206084	0.0	418.53807492905986	1349.407455842146	0.0	442.9538041123857	1358.1711648930147	0.0	520.8411885540849	743.3761717559391	0.0	523.8669152531916	633.9586641510751	0.0	529.3485050667342	699.0814886373236	0.0	600.7689158601239	792.2662964333203	0.0	626.5925663945594	925.6076345176974	0.0	646.8112261808336	1033.8050510472285	0.0	437.37662392875814	776.3939091508664	0.0	395.2644165367585	904.6987435742166	0.0	403.5122272940667	999.990518262916	0.0
539	17.97505055218541	507.7466959139429	994.1232438671777	0.0	547.6952545744837	1004.2901487695406	0.0	544.6580879482818	1158.9178297416233	0.0	537.3580709813652	1323.2803482993634	0.0	538.5760726925208	1326.2550700500558	0.0	566.9630819872401	1341.912459039848	0.0	530.6093157649	1363.0169533644546	0.0	462.9715995022544	1001.1013366405687	0.0	466.1705847652829	1148.1757758554131	0.0	455.40504976429213	1304.3610093844159	0.0	462.5411352960202	1330.9366396361183	0.0	430.27092804631167	1330.6911816829677	0.0	453.1800620403968	1340.5291213471066	0.0	524.0672184010858	738.653272226421	0.0	525.6146543828968	630.5403941333149	0.0	531.8844822043334	695.1840267731458	0.0	602.65028542311	786.7256673523549	0.0	629.5959172262433	918.1819506341778	0.0	647.2747927842062	1022.0979156083163	0.0	441.48674142885903	771.7343337056111	0.0	399.77352089128357	898.3649033408985	0.0	400.9740575068123	995.9357577504937	0.0
540	18.008399440037334	511.74166566179076	988.1698480298552	0.0	551.1289580190788	998.1037421762645	0.0	545.9899381704041	1155.657744574752	0.0	537.9956794301985	1321.5584225142077	0.0	538.2561000250062	1326.4106298712018	0.0	566.8645611580903	1344.9200144441181	0.0	531.8353012094093	1360.8916003985614	0.0	467.778071108971	995.7206065995498	0.0	471.0985300198018	1142.03632345278	0.0	463.95857567320047	1293.8117702769764	0.0	471.26437634054616	1312.6554715826207	0.0	441.605029972493	1314.2076001762732	0.0	462.58506840398064	1327.3684402359015	0.0	526.814033015013	735.0019612985916	0.0	527.4861370834759	628.9368137769094	0.0	533.5939153829277	693.5494029525507	0.0	604.6579929284418	781.7343960843605	0.0	632.5951067224903	910.5757167266157	0.0	647.233118547063	1011.4987266345255	0.0	445.4408112336908	768.142878287726	0.0	403.69662951813694	892.5210896412735	0.0	398.1488413051348	993.1787772346946	0.0
541	18.041748327889252	513.9688412677322	983.5067993858909	0.0	552.9146065339141	992.4770984051394	0.0	547.1271279074192	1152.216379596409	0.0	538.3696535802998	1322.706540214268	0.0	538.3305852994351	1325.6118213059685	0.0	567.6582957823776	1344.557465063579	0.0	532.3739323525753	1359.838729551277	0.0	471.51555952163545	990.2784657732883	0.0	475.3951164498421	1135.7051696048381	0.0	471.1285198087484	1285.4838330840776	0.0	478.1670530314232	1291.9021290069902	0.0	451.4853071819135	1296.6875963717916	0.0	470.2912993420866	1317.8459169842972	0.0	528.9065694607226	732.9396819529131	0.0	529.543811426378	628.7784392629297	0.0	534.2898671500324	694.0809486896719	0.0	607.1443591182003	778.1013309242591	0.0	635.4157122774707	904.156619524953	0.0	646.9169611361588	1002.4794635724878	0.0	448.58546663593	766.259122100303	0.0	406.95800645414477	888.8593303670646	0.0	395.34964252468535	991.8406472647698	0.0
542	18.075097215741174	515.0420443542241	979.8602561236405	0.0	553.9032748496608	988.3982141179015	0.0	548.0397467275031	1148.7853398570728	0.0	538.4580733516741	1324.759242169634	0.0	539.7755919966418	1325.7561430723047	0.0	569.8288707247635	1341.6174250533186	0.0	531.8908633734607	1360.1036094218339	0.0	474.0568783690287	985.7757515152914	0.0	478.31209689084136	1128.1414689376154	0.0	476.7756556361817	1274.694325527496	0.0	484.12623409314165	1271.4321166570485	0.0	459.0083285892663	1279.7979503458996	0.0	476.3676886972808	1307.4135262890863	0.0	530.1030084875632	732.0362003906832	0.0	530.9096372597822	628.9859958283007	0.0	534.5794889233664	695.4966536165391	0.0	608.9953436795869	775.2684151281921	0.0	637.5328749816268	898.8639956608714	0.0	646.4497992170279	994.1465827238942	0.0	450.700057280151	765.2376910243798	0.0	409.93718347376716	886.6935066088746	0.0	393.31521655424285	991.2322032489762	0.0
543	18.108446103593096	516.2088611785701	976.4000853583591	0.0	555.421127651665	985.146342782184	0.0	548.7386849400223	1145.7316440034078	0.0	538.5981274633798	1324.290501915942	0.0	540.3171678601968	1330.2337917570096	0.0	571.9899166927535	1341.0509826154578	0.0	530.7671887065294	1360.223445829559	0.0	476.0880988786834	981.7406845144612	0.0	480.0553745883279	1119.5687661761208	0.0	481.0959492416095	1259.73550492144	0.0	488.8312146076009	1256.0393082747146	0.0	463.96933882895314	1265.8896568524044	0.0	480.9094439402329	1292.9365735444337	0.0	530.411332398682	731.5205807162181	0.0	531.308713736062	629.2850247312435	0.0	535.3569899498021	696.658111649112	0.0	609.3788976548624	772.6579194636405	0.0	638.6762651197661	894.1830677285398	0.0	645.8658318933196	985.6798062117156	0.0	452.27240959913416	763.9080494663559	0.0	412.7823188550759	884.4289757103055	0.0	392.39006952484084	990.6679814646703	0.0
544	18.141794991445018	517.4998964893152	973.3895676771763	0.0	557.3164722770948	982.302210124914	0.0	549.1756590135699	1143.4104204043658	0.0	539.0224930602852	1321.7662005319085	0.0	538.4063391736291	1335.8925018415846	0.0	572.264937247463	1343.4387490591887	0.0	529.6943665775922	1358.343198050278	0.0	478.0865709611159	977.9215599156074	0.0	481.637607488535	1111.1758278963541	0.0	484.79820267194367	1244.34138882379	0.0	492.2932169764286	1244.3926667419046	0.0	468.4944210790877	1252.6444147562195	0.0	484.3551298924158	1276.6980517430084	0.0	530.3434797596893	730.5534758749693	0.0	530.7991509450421	629.0890615520157	0.0	535.9594032464009	695.8618133620603	0.0	608.7136594289054	770.3266726217511	0.0	639.0397917284356	890.1245858040983	0.0	645.1869220557766	978.2447532617385	0.0	453.78829692761894	762.1562858982195	0.0	415.2015158705087	882.2415428920651	0.0	391.72502750163045	990.0994577754624	0.0
545	18.175143879296936	518.3365440536609	971.4145498385797	0.0	558.5128022594336	980.3054846722873	0.0	549.4182515403226	1141.8659457135982	0.0	539.3982833174955	1319.8473101770674	0.0	536.5259207675246	1335.8327256193957	0.0	570.7873529261606	1344.931328239262	0.0	529.2254594820396	1354.8712140427433	0.0	479.80766294561516	975.1901094706154	0.0	483.6143518812166	1105.1645180077332	0.0	488.50719992606747	1233.983567693763	0.0	495.6367660033806	1232.8615833320953	0.0	474.36285523929956	1238.360752351645	0.0	487.56910957968927	1263.72245525754	0.0	530.3286885179448	728.5608196487802	0.0	529.3599784765225	627.6727680532882	0.0	534.8846494910998	692.4526188612971	0.0	607.6052459713106	768.2887833367893	0.0	638.6670680043882	886.7951804824725	0.0	644.5531678849496	973.281818475943	0.0	455.30487084848477	760.6307536215386	0.0	416.7339976877704	881.0091676451211	0.0	390.295140767169	989.3371661888737	0.0
